<?xml version="1.0" encoding="UTF-8" standalone="no"?>
<!-- Created with Inkscape (http://www.inkscape.org/) -->

<svg
   width="199.56393mm"
   height="193.24123mm"
   viewBox="0 0 199.56393 193.24123"
   version="1.1"
   id="svg5"
   inkscape:version="1.1 (c68e22c387, 2021-05-23)"
   sodipodi:docname="DgtAngelLogo.svg"
   xmlns:inkscape="http://www.inkscape.org/namespaces/inkscape"
   xmlns:sodipodi="http://sodipodi.sourceforge.net/DTD/sodipodi-0.dtd"
   xmlns="http://www.w3.org/2000/svg"
   xmlns:svg="http://www.w3.org/2000/svg">
  <sodipodi:namedview
     id="namedview7"
     pagecolor="#ffffff"
     bordercolor="#666666"
     borderopacity="1.0"
     inkscape:pageshadow="2"
     inkscape:pageopacity="0.0"
     inkscape:pagecheckerboard="0"
     inkscape:document-units="mm"
     showgrid="false"
     inkscape:zoom="0.77771465"
     inkscape:cx="318.88302"
     inkscape:cy="536.82929"
     inkscape:window-width="1837"
     inkscape:window-height="1381"
     inkscape:window-x="2"
     inkscape:window-y="10"
     inkscape:window-maximized="0"
     inkscape:current-layer="layer1"
     showguides="false" />
  <defs
     id="defs2">
    <linearGradient
       id="linearGradient2673"
       inkscape:swatch="solid">
      <stop
         style="stop-color:#000000;stop-opacity:1;"
         offset="0"
         id="stop2671" />
    </linearGradient>
    <pattern
       id="EMFhbasepattern"
       patternUnits="userSpaceOnUse"
       width="6"
       height="6"
       x="0"
       y="0" />
    <pattern
       id="EMFhbasepattern-5"
       patternUnits="userSpaceOnUse"
       width="6"
       height="6"
       x="0"
       y="0" />
    <pattern
       id="EMFhbasepattern-1"
       patternUnits="userSpaceOnUse"
       width="6"
       height="6"
       x="0"
       y="0" />
    <pattern
       id="EMFhbasepattern-57"
       patternUnits="userSpaceOnUse"
       width="6"
       height="6"
       x="0"
       y="0" />
    <pattern
       id="EMFhbasepattern-6"
       patternUnits="userSpaceOnUse"
       width="6"
       height="6"
       x="0"
       y="0" />
  </defs>
  <g
     inkscape:label="Layer 1"
     inkscape:groupmode="layer"
     id="layer1"
     transform="translate(-5.6765452,-4.3417188)">
    <g
       id="g4511"
       transform="matrix(0.72366047,0,0,0.72366047,25.695643,32.958785)">
      <g
         id="g4495">
        <path
           style="fill:#55514e;fill-opacity:1;stroke-width:1;stroke-miterlimit:4;stroke-dasharray:none"
           d="m 85.984441,37.202128 c 0.987923,-1.259698 0.95981,-1.287788 -0.299888,-0.299866 -1.322974,1.037547 -1.743714,1.689764 -1.090032,1.689764 0.16489,0 0.790391,-0.625456 1.38992,-1.389898 z"
           id="path120" />
        <path
           style="fill:#55514e;fill-opacity:1;stroke-width:1;stroke-miterlimit:4;stroke-dasharray:none"
           d="m 95.162203,94.833529 c -0.25353,-0.633566 -0.441734,-0.445384 -0.479826,0.479871 -0.03446,0.837246 0.153177,1.306327 0.417136,1.042412 0.263915,-0.263914 0.29214,-0.948952 0.06262,-1.522283 z"
           id="path118" />
        <path
           style="fill:#55514e;fill-opacity:1;stroke-width:1;stroke-miterlimit:4;stroke-dasharray:none"
           d="m 119.02574,142.95072 c -0.26392,-0.26391 -0.94896,-0.29212 -1.52229,-0.0626 -0.63356,0.25353 -0.44538,0.44173 0.47985,0.47985 0.83727,0.0345 1.30635,-0.15318 1.04244,-0.41714 z"
           id="path116" />
        <g
           id="g4519" />
        <path
           style="fill:#ffffff;fill-opacity:1;stroke:#000000;stroke-width:0.1;stroke-miterlimit:4;stroke-dasharray:none;stroke-opacity:1"
           d="M 84.912494,8.6219653 C 82.864356,7.965879 81.674949,5.6391138 81.674949,2.2885271 c 0,-7.0554719 4.859592,-15.8001051 11.20762,-20.1676671 1.85065,-1.273278 5.192489,-2.720359 7.400211,-3.204434 4.23854,-0.929362 10.24869,-0.130313 13.03122,1.732496 1.90428,1.274852 2.42425,2.254088 2.41926,4.556113 -0.003,1.67716 -0.11974,2.176646 -0.84059,3.616876 -3.45354,6.8997507 -14.51941,15.8327369 -23.534008,18.9979623 -2.423385,0.8509002 -5.210995,1.1977616 -6.446168,0.802092 z"
           id="path7931" />
        <g
           id="g4676">
          <g
             id="g4845">
            <path
               style="fill:#ffffff;fill-opacity:1;stroke:#000000;stroke-width:0.4;stroke-miterlimit:4;stroke-dasharray:none;stroke-opacity:1"
               d="m -13.394839,83.26754 9.46e-4,-5.361049 5.3601033,0.05496 5.3601029,0.05496 0.2348334,5.306153 0.2348559,5.306176 h -5.5959049 -5.5959046 l 9.46e-4,-5.361072 z"
               id="path128" />
            <path
               style="fill:#ffffff;fill-opacity:1;stroke:#000000;stroke-width:0.4;stroke-miterlimit:4;stroke-dasharray:none;stroke-opacity:1"
               d="m -27.196104,83.751623 c 0.141238,-2.682326 0.399048,-5.019239 0.572949,-5.19314 0.1739,-0.173901 2.506781,-0.391727 5.18422,-0.484083 l 4.868045,-0.167819 -9.23e-4,5.361049 -9.24e-4,5.361072 h -5.44007 -5.440048 z"
               id="path126" />
            <path
               style="fill:#ffffff;fill-opacity:1;stroke:#000000;stroke-width:0.4;stroke-miterlimit:4;stroke-dasharray:none;stroke-opacity:1"
               d="m -13.395807,97.365157 v -5.559616 h 5.5596152 5.5596156 v 5.559616 5.559613 h -5.5596156 -5.5596152 z"
               id="path124" />
            <path
               style="fill:#ffffff;fill-opacity:1;stroke:#000000;stroke-width:0.4;stroke-miterlimit:4;stroke-dasharray:none;stroke-opacity:1"
               d="m 212.56304,143.61895 c -3.31745,-0.33924 -11.79684,-2.28091 -17.47309,-4.00113 l -4.7654,-1.44419 -0.20408,-53.36484 -0.20409,-53.364844 h -17.07039 -17.0704 v -10.32501 -10.32501 h 46.06544 46.06543 v 10.32501 10.32501 h -16.2916 -16.29158 l 0.0304,56.105153 c 0.0158,30.857851 -0.0683,56.152031 -0.18877,56.209311 -0.12051,0.0572 -1.2913,-0.005 -2.60177,-0.13943 z"
               id="path122" />
            <path
               style="fill:#ffffff;fill-opacity:1;stroke:#000000;stroke-width:0.4;stroke-miterlimit:4;stroke-dasharray:none;stroke-opacity:1"
               d="m 122.81488,145.2438 c -12.50024,-2.2291 -25.4206,-6.4295 -34.467418,-15.71278 -5.491925,-3.21949 -8.82291,-9.9335 -11.930144,-15.51804 -8.907044,-18.828647 -9.542412,-41.440496 -1.928539,-60.796905 2.697937,-4.841383 4.654656,-11.880528 9.257481,-16.518705 2.866544,-4.044637 6.596441,-7.375676 10.549301,-10.640513 5.140745,-2.367612 8.717419,-6.640406 14.517979,-8.683533 4.58858,-0.959086 8.55162,-3.933163 13.81712,-4.379603 6.46311,-1.409723 13.06133,-1.924523 19.6429,-2.418252 0,6.956159 0,13.912318 0,20.868477 -5.34953,0.173765 -10.86511,-0.06699 -15.75381,2.500024 -6.80801,2.388421 -13.12731,6.234367 -18.40916,11.114698 -2.90826,2.571328 -6.29932,9.683829 -8.453957,14.486981 -5.107925,13.557462 -4.234728,29.065563 0.975867,42.449111 1.43881,5.9835 4.53104,8.22365 9.18497,12.42003 7.09431,5.75321 16.20015,9.38214 25.4342,8.68805 6.79918,-0.39526 14.11575,0.91692 20.52372,-1.87145 0,-15.10351 0,-30.207012 0,-45.31052 8.2132,0 16.42642,0 24.63962,0 -0.13853,20.735049 -0.27691,41.4701 -0.41538,62.20514 -15.81416,5.67289 -32.67022,8.29734 -49.46846,7.47141 -2.57267,-0.0834 -5.15236,-0.11065 -7.71629,-0.35362 z"
               id="path114" />
            <path
               style="fill:#ffffff;fill-opacity:1;stroke:#000000;stroke-width:0.4;stroke-miterlimit:4;stroke-dasharray:none;stroke-opacity:1"
               d="m 10.738397,135.81812 0.37972,-10.23505 6.009392,-0.92915 C 37.194061,121.55128 50.331193,109.93878 55.502956,90.732133 57.326614,83.959561 57.263699,69.292555 55.381541,62.418976 53.228485,54.556123 50.200564,49.040659 45.255931,43.974768 35.588364,34.07016 19.918907,30.439219 1.8931637,33.92676 l -4.1697174,0.806723 v 20.196594 20.196595 l -12.5091523,3.15e-4 -12.509129,3.38e-4 0.199805,-28.351001 0.199806,-28.351 3.771435,-1.449277 C -16.232887,14.32805 -2.798751,11.674444 7.2544154,10.97553 25.085556,9.7358577 39.177587,11.668677 50.761664,16.942844 c 4.140051,1.884929 6.089224,3.065043 10.832994,6.558778 2.441028,1.797798 8.649437,8.077119 10.208415,10.32501 0.757391,1.092082 1.878036,2.693139 2.490338,3.557911 0.97141,1.37199 0.932778,1.827398 -0.303268,3.57404 -2.307899,3.261335 -6.366856,13.450356 -8.074461,20.269039 -1.019774,4.072044 -1.748354,10.346995 -2.028825,17.47309 -0.506475,12.868284 1.188899,23.742588 5.229091,33.540218 l 2.314117,5.61179 -5.075216,5.56076 c -11.685693,12.80371 -28.636315,20.3846 -49.407345,22.09664 l -6.588625,0.54306 z"
               id="path20" />
            <path
               style="fill:#ffffff;fill-opacity:1;stroke:#000000;stroke-width:1;stroke-miterlimit:4;stroke-dasharray:none;stroke-opacity:1"
               d="m 90.692535,226.72034 c -33.56149,-1.16247 -56.688926,-5.82318 -64.097303,-12.91709 -2.045704,-1.95886 -2.198803,-2.50775 -2.018187,-7.23596 0.596744,-15.62209 5.228397,-29.63704 13.379964,-40.48657 2.801368,-3.72855 6.529022,-7.43098 11.346355,-11.2696 2.403654,-1.91531 5.584971,-4.52762 7.069583,-5.80514 3.345165,-2.87852 10.050992,-9.57901 12.505054,-12.49512 11.070609,-13.15499 16.800922,-26.10695 18.08292,-40.872059 0.141214,-1.625992 0.257678,-5.298959 0.258888,-8.16215 l 0.0015,-5.205779 H 74.094152 60.966998 L 59.842801,79.89292 C 57.823086,75.620669 56.760939,71.56541 56.459338,66.974882 l -0.152009,-2.313695 14.814304,-9.741998 c 8.147862,-5.358091 14.814303,-9.82712 14.814303,-9.931156 0,-0.104021 -0.433818,-0.513694 -0.964023,-0.91035 -3.025028,-2.262969 -7.456652,-7.222 -9.751402,-10.911931 C 68.511493,22.377814 67.227969,8.0034747 71.939422,-3.5793721 77.327842,-16.82654 88.37119,-26.100393 102.26024,-29.041851 c 3.34406,-0.708211 9.66746,-0.961103 13.1452,-0.525714 18.19469,2.277851 32.76445,16.154968 35.83819,34.1344483 0.61595,3.6028813 0.67258,9.6206977 0.12398,13.1780167 -1.29479,8.396642 -4.93298,15.857483 -10.70865,21.960276 -1.25869,1.329986 -3.03847,3.026616 -3.95508,3.77029 -0.91659,0.743689 -1.66654,1.434657 -1.66654,1.535488 0,0.100845 6.66142,4.563404 14.80314,9.916792 l 14.80315,9.733441 -0.16829,2.442224 c -0.31867,4.624456 -1.29287,8.329416 -3.3629,12.789509 l -1.10368,2.377952 h -13.16139 -13.16138 l 0.13834,7.262385 c 0.13985,7.340264 0.40774,10.036417 1.47519,14.846113 4.01164,18.07554 16.02074,34.68573 36.59898,50.62132 1.52708,1.18256 3.82615,3.14637 5.10906,4.36405 11.73294,11.13644 18.65103,27.97884 19.38864,47.20255 0.18143,4.72828 0.0284,5.27686 -2.01748,7.23596 -6.5035,6.22745 -24.49803,10.48153 -52.01474,12.29682 -13.18281,0.86966 -36.41891,1.14858 -51.672201,0.62027 z"
               id="path9360" />
            <path
               style="fill:#ffffff;fill-opacity:1;stroke:#000000;stroke-width:0.1;stroke-miterlimit:4;stroke-dasharray:none;stroke-opacity:1"
               d="m 62.862824,192.01785 c -11.504382,-0.45201 -21.39148,-2.02765 -28.663934,-4.56802 -2.771039,-0.96795 -6.041272,-2.37101 -6.041272,-2.59193 0,-0.40598 2.673126,-6.78858 3.720305,-8.88292 3.92177,-7.84346 9.489793,-14.73747 16.045818,-19.86701 12.577219,-9.84061 20.778815,-18.20906 27.139816,-27.69198 7.266391,-10.83266 10.881527,-21.2887 11.843629,-34.255314 0.154505,-2.082354 0.208148,-2.249377 0.722235,-2.248923 1.164385,10e-4 9.772797,1.545134 12.891999,2.312454 10.76436,2.648044 17.14577,6.903693 18.92515,12.620823 0.8522,2.73814 0.68901,4.26773 -1.9636,18.40635 -4.12825,22.00395 -8.57974,43.90432 -9.65696,47.51017 -1.34547,4.50376 -3.47704,8.17075 -6.45376,11.10256 -4.22765,4.16386 -9.803006,6.57899 -17.68631,7.66133 -2.880261,0.39547 -15.621888,0.69676 -20.823116,0.49241 z M 73.964443,82.207492 60.772412,82.137641 59.518325,79.504959 C 57.594875,75.467072 56.185059,69.836818 56.180372,66.17448 l -0.0015,-1.186005 14.781843,-9.727287 c 9.2798,-6.106633 14.781842,-9.879705 14.781842,-10.136764 0,-0.225217 -0.588671,-0.858414 -1.308154,-1.40711 C 82.502444,42.244012 78.751023,38.34489 77.006722,35.997253 73.159626,30.819475 70.470398,24.432197 69.377347,17.876479 68.786892,14.33517 68.84433,8.4834225 69.506163,4.7570133 72.474993,-11.959965 85.203995,-25.058648 102.02893,-28.710284 c 2.19804,-0.477059 3.4384,-0.568042 7.87878,-0.577932 5.75435,-0.01285 7.33562,0.206483 12.21111,1.693499 3.71899,1.134291 4.67843,1.750917 7.92281,5.091965 5.75027,5.921611 9.24725,12.473183 11.01996,20.6458697 0.48309,2.22723478 0.57331,3.4499373 0.58322,7.9048271 0.0106,4.6056912 -0.0636,5.6064562 -0.58575,7.9386232 -1.05096,4.693937 -2.38993,8.009695 -4.94347,12.241804 -4.26095,7.061903 -12.21856,13.900084 -20.67581,17.767259 -1.20194,0.549587 -2.18641,1.083178 -2.18771,1.185732 -0.001,0.102509 3.75737,4.556057 8.35258,9.896654 l 8.35497,9.710173 -0.005,1.543214 c -0.0106,3.442019 -1.32495,9.980929 -2.86825,14.268466 l -0.60146,1.671002 -19.66433,0.003 c -10.815379,0.0015 -25.600744,-0.02827 -32.856355,-0.06652 z M 91.313047,7.8219008 c 9.014593,-3.1652254 20.080473,-12.0982116 23.534013,-18.9979618 0.72087,-1.440231 0.83696,-1.939717 0.84059,-3.616876 0.005,-2.302026 -0.51498,-3.281262 -2.41926,-4.556114 -2.78253,-1.862809 -8.79269,-2.661857 -13.03122,-1.732495 -2.207727,0.484075 -5.549566,1.931156 -7.400216,3.204434 -6.348028,4.367562 -11.20762,13.1121947 -11.20762,20.1676666 0,3.3505867 1.189407,5.6773519 3.237545,6.3334382 1.235173,0.3956696 4.022783,0.048805 6.446168,-0.802092 z"
               id="path7929" />
            <path
               style="fill:#ffffff;fill-opacity:1;stroke:#000000;stroke-width:1;stroke-miterlimit:4;stroke-dasharray:none;stroke-opacity:1"
               d="M 104.67521,-2.576015 C 91.7893,-3.226337 78.78522,-3.345367 66.092405,-5.939014 c -3.475314,-1.239647 -5.593879,-1.057299 -9.63078,-2.319023 -21.677014,-6.191245 -18.921084,-19.07771 -0.126852,-24.766701 12.120437,-3.27575 23.774877,-4.622625 35.433787,-5.421455 15.11704,-1.096563 30.32099,-0.591484 45.40406,0.743443 6.36037,0.99803 12.82747,1.56917 19.10835,3.145252 4.90257,1.169196 9.69258,2.603421 14.36586,4.503875 3.74034,1.918004 8.10524,3.917525 8.81471,8.362994 -0.38097,5.926051 -9.78346,9.987953 -14.26166,12.135191 -17.12301,5.619358 -35.31595,6.565184 -53.21503,6.934873 -2.43218,0.03907 -4.88383,0.25839 -7.30933,0.04465 z m 18.66475,-11.036339 c 10.91207,-0.445508 21.94563,-0.753888 32.65502,-3.058663 3.45389,-0.852044 12.38349,-3.673356 8.48641,-8.02399 -4.71075,-4.956821 -11.98859,-5.738532 -18.26245,-7.546992 -7.24102,-1.349055 -14.59085,-2.110914 -21.89643,-2.888878 -11.15069,-0.251853 -22.34912,-0.564139 -33.47629,0.255681 -8.50387,1.151279 -17.1176,1.807 -25.396403,4.216774 -3.926246,1.032807 -8.846455,2.863582 -11.745755,6.30323 -2.983971,4.861852 6.081795,6.529157 9.447502,7.939744 14.146616,2.587898 28.692976,2.766412 43.071116,3.025983 5.70662,0.03188 11.41274,-0.08259 17.11728,-0.222834 z"
               id="path12133" />
          </g>
        </g>
      </g>
    </g>
    <path
       style="fill:#000000;stroke-width:0.254867"
       id="path6912"
       d="" />
    <path
       style="fill:#000000;stroke-width:0.254867"
       id="path6892"
       d="" />
    <path
       style="fill:#000000;stroke-width:0.254867"
       id="path6872"
       d="" />
  </g>
</svg>
