<?xml version="1.0" encoding="UTF-8" standalone="no"?>
<!-- Created with Inkscape (http://www.inkscape.org/) -->

<svg
   width="1080"
   height="1080"
   viewBox="0 0 285.75 285.75"
   version="1.1"
   id="svg5"
   xmlns="http://www.w3.org/2000/svg"
   xmlns:svg="http://www.w3.org/2000/svg">
  <defs
     id="defs2">
    <pattern
       id="EMFhbasepattern"
       patternUnits="userSpaceOnUse"
       width="6"
       height="6"
       x="0"
       y="0" />
    <pattern
       id="EMFhbasepattern-5"
       patternUnits="userSpaceOnUse"
       width="6"
       height="6"
       x="0"
       y="0" />
    <pattern
       id="EMFhbasepattern-1"
       patternUnits="userSpaceOnUse"
       width="6"
       height="6"
       x="0"
       y="0" />
    <pattern
       id="EMFhbasepattern-57"
       patternUnits="userSpaceOnUse"
       width="6"
       height="6"
       x="0"
       y="0" />
    <pattern
       id="EMFhbasepattern-6"
       patternUnits="userSpaceOnUse"
       width="6"
       height="6"
       x="0"
       y="0" />
  </defs>
  <g
     id="layer1">
    <g
       id="g2691">
      <g
         id="g7093"
         transform="matrix(2.2525984,0,0,2.2525984,-421.72981,-26.928296)">
        <path
           style="fill:#55514e;fill-opacity:1;stroke-width:0.352585"
           d="m 195.87872,70.852115 4.2e-4,-2.37994 2.37952,0.0244 2.37952,0.0244 0.10425,2.35557 0.10426,2.35558 h -2.4842 -2.4842 l 4.2e-4,-2.37995 z"
           id="path128" />
        <path
           style="fill:#55514e;fill-opacity:1;stroke-width:0.352585"
           d="m 189.7519,71.067015 c 0.0627,-1.19077 0.17715,-2.2282 0.25435,-2.3054 0.0772,-0.0772 1.11284,-0.1739 2.30144,-0.2149 l 2.16108,-0.0745 -4.1e-4,2.37994 -4.1e-4,2.37995 h -2.41502 -2.41501 z"
           id="path126" />
        <path
           style="fill:#55514e;fill-opacity:1;stroke-width:0.352585"
           d="m 195.87829,77.110495 v -2.46809 h 2.46809 2.46809 v 2.46809 2.46809 h -2.46809 -2.46809 z"
           id="path124" />
        <path
           style="fill:#55514e;fill-opacity:1;stroke-width:0.352585"
           d="m 296.1886,97.644025 c -1.47272,-0.1506 -5.23699,-1.01257 -7.75686,-1.77623 l -2.11551,-0.64112 -0.0906,-23.69035 -0.0906,-23.69035 h -7.57809 -7.57809 v -4.5836 -4.5836 h 20.44991 20.44991 v 4.5836 4.5836 h -7.23236 -7.23235 l 0.0135,24.90686 c 0.007,13.69878 -0.0303,24.92767 -0.0838,24.9531 -0.0535,0.0254 -0.57325,-0.002 -1.15501,-0.0619 z"
           id="path122" />
        <path
           style="fill:#55514e;fill-opacity:1;stroke-width:0.352585"
           d="m 239.99634,50.402215 c 0.43857,-0.55922 0.42609,-0.57169 -0.13313,-0.13312 -0.58731,0.4606 -0.77409,0.75014 -0.4839,0.75014 0.0732,0 0.35088,-0.27766 0.61703,-0.61702 z"
           id="path120" />
        <path
           style="fill:#55514e;fill-opacity:1;stroke-width:0.352585"
           d="m 244.07064,75.986625 c -0.11255,-0.28126 -0.1961,-0.19772 -0.21301,0.21303 -0.0153,0.37168 0.068,0.57992 0.18518,0.46276 0.11716,-0.11716 0.12969,-0.42127 0.0278,-0.67579 z"
           id="path118" />
        <path
           style="fill:#55514e;fill-opacity:1;stroke-width:0.352585"
           d="m 254.66442,97.347375 c -0.11716,-0.11716 -0.42127,-0.12968 -0.67579,-0.0278 -0.28126,0.11255 -0.19772,0.1961 0.21302,0.21302 0.37169,0.0153 0.57993,-0.068 0.46277,-0.18518 z"
           id="path116" />
        <path
           style="fill:#e03c32;fill-opacity:1;stroke-width:0.352585"
           d="m 256.34654,98.365345 c -5.54925,-0.989568 -11.28501,-2.85426 -15.30118,-6.975401 -2.43804,-1.429234 -3.91677,-4.409797 -5.29617,-6.88895 -3.95412,-8.358636 -4.23618,-18.396754 -0.85614,-26.989679 1.1977,-2.149244 2.06635,-5.274144 4.10969,-7.333178 1.27255,-1.795543 2.92837,-3.274297 4.68317,-4.723662 2.28214,-1.051058 3.86994,-2.947887 6.44499,-3.854896 2.03702,-0.425769 3.79634,-1.746056 6.13386,-1.944245 2.86918,-0.625821 5.79834,-0.854357 8.72011,-1.073539 0,3.08806 0,6.17612 0,9.26418 -2.37483,0.07714 -4.82337,-0.02974 -6.99362,1.10984 -3.02229,1.060296 -5.82763,2.767634 -8.17241,4.934168 -1.29107,1.141494 -2.79647,4.298959 -3.75298,6.431231 -2.26757,6.018588 -1.87993,12.903127 0.43322,18.844509 0.63873,2.656264 2.01147,3.65074 4.0775,5.513646 3.14939,2.554033 7.19176,4.165029 11.29105,3.856901 3.01837,-0.175466 6.26643,0.407049 9.11113,-0.830795 0,-6.704927 0,-13.409853 0,-20.11478 3.6461,0 7.29221,0 10.93831,0 -0.0615,9.204947 -0.12293,18.409893 -0.1844,27.61484 -7.02041,2.518374 -14.50335,3.683452 -21.96062,3.316794 -1.14209,-0.03702 -2.2873,-0.04912 -3.42551,-0.156984 z"
           id="path114" />
        <path
           style="fill:#55514e;fill-opacity:1;stroke-width:0.352585"
           d="m 206.59223,94.180985 0.16857,-4.54366 2.66776,-0.41248 c 8.90818,-1.37736 14.74017,-6.53252 17.03608,-15.05896 0.80958,-3.00656 0.78165,-9.51771 -0.0539,-12.56911 -0.95581,-3.49057 -2.3,-5.93906 -4.49508,-8.18797 -4.29174,-4.39697 -11.24791,-6.00886 -19.25011,-4.46063 l -1.85107,0.35813 v 8.96591 8.96591 l -5.55321,1.4e-4 -5.5532,1.5e-4 0.0887,-12.58591 0.0887,-12.58591 1.67426,-0.64338 c 3.05909,-1.17553 9.02293,-2.35355 13.48585,-2.66382 7.91581,-0.55033 14.17171,0.30771 19.31425,2.64908 1.8379,0.83678 2.7032,1.36067 4.80911,2.91165 1.08365,0.7981 3.83976,3.58569 4.53184,4.5836 0.33623,0.48481 0.83372,1.19557 1.10554,1.57947 0.43124,0.60907 0.41409,0.81124 -0.13463,1.58663 -1.02455,1.44781 -2.82645,5.97104 -3.58451,8.99807 -0.45271,1.80771 -0.77615,4.59336 -0.90066,7.75686 -0.22484,5.71264 0.52779,10.54009 2.32136,14.88957 l 1.02731,2.49125 -2.25305,2.4686 c -5.18765,5.68397 -12.71257,9.04937 -21.93349,9.8094 l -2.9249,0.24108 z"
           id="path20" />
      </g>
      <g
         id="g11905"
         transform="matrix(1.5119321,0,0,1.5119321,-191.79148,-83.771763)">
        <path
           style="fill:#4d7737;fill-opacity:1;stroke-width:0.170031"
           d="m 208.59742,238.03822 c -22.19775,-0.76886 -37.49436,-3.85148 -42.3943,-8.54343 -1.35304,-1.2956 -1.4543,-1.65864 -1.33484,-4.7859 0.39469,-10.33254 3.45809,-19.6021 8.84958,-26.77804 1.85284,-2.46608 4.31833,-4.91489 7.50454,-7.45377 1.58979,-1.2668 3.69393,-2.99459 4.67586,-3.83955 2.21251,-1.90387 6.64778,-6.33561 8.27091,-8.26434 7.32216,-8.70078 11.11222,-17.26728 11.96014,-27.033 0.0934,-1.07544 0.17043,-3.50476 0.17123,-5.39849 l 10e-4,-3.44313 h -8.68238 -8.68237 l -0.74355,-1.57279 c -1.33585,-2.82569 -2.03836,-5.50786 -2.23784,-8.54406 l -0.10054,-1.53029 9.79826,-6.44341 c 5.38904,-3.54387 9.79826,-6.49971 9.79826,-6.56852 0,-0.0688 -0.28693,-0.33976 -0.63761,-0.60211 -2.00077,-1.49674 -4.93187,-4.77667 -6.44963,-7.21721 -4.43738,-7.1352 -5.28631,-16.642465 -2.17013,-24.303422 3.56393,-8.761748 10.86806,-14.895524 20.05435,-16.84102 2.21178,-0.468415 6.39411,-0.635679 8.69431,-0.34771 12.03406,1.506583 21.67058,10.684982 23.70357,22.576707 0.40739,2.382965 0.44485,6.363181 0.082,8.716011 -0.85638,5.553584 -3.2627,10.488224 -7.08276,14.524644 -0.8325,0.87966 -2.00966,2.00182 -2.61591,2.49369 -0.60624,0.49188 -1.10226,0.94889 -1.10226,1.01558 0,0.0667 4.4059,3.01826 9.79088,6.55902 l 9.79088,6.43775 -0.11131,1.6153 c -0.21077,3.05864 -0.85511,5.50912 -2.22424,8.45905 l -0.72998,1.57279 h -8.70501 -8.70501 l 0.0915,4.80338 c 0.0925,4.85489 0.26968,6.63814 0.9757,9.8193 2.65332,11.95526 10.5962,22.94133 24.20676,33.48121 1.01002,0.78215 2.53064,2.08103 3.37916,2.88641 7.76023,7.3657 12.33589,18.50535 12.82375,31.22002 0.12,3.12731 0.0188,3.49014 -1.33437,4.7859 -4.30145,4.11887 -16.20313,6.93254 -34.40283,8.13318 -8.71918,0.5752 -24.08766,0.75968 -34.17627,0.41025 z"
           id="path9360" />
        <path
           style="fill:#92b946;stroke-width:0.170031"
           d="m 204.77447,93.786788 c -1.35465,-0.433939 -2.14133,-1.972874 -2.14133,-4.18897 0,-4.666527 3.21416,-10.450274 7.41278,-13.339003 1.22403,-0.842153 3.43434,-1.79926 4.89454,-2.11943 2.80339,-0.614685 6.77854,-0.08619 8.61892,1.145882 1.2595,0.843194 1.60341,1.490866 1.60011,3.013438 -0.002,1.109282 -0.0792,1.439645 -0.55597,2.392221 -2.28419,4.563532 -9.60322,10.471857 -15.56552,12.565354 -1.60284,0.56279 -3.44658,0.792206 -4.26353,0.530508 z"
           id="path7931" />
        <path
           style="fill:#6b9c40;stroke-width:0.170031"
           d="m 190.1907,215.08581 c -7.60906,-0.29896 -14.14844,-1.3411 -18.95848,-3.02131 -1.83278,-0.64021 -3.99573,-1.5682 -3.99573,-1.71432 0,-0.26852 1.76802,-4.49 2.46063,-5.87521 2.59388,-5.18771 6.2766,-9.74744 10.61279,-13.14015 8.31864,-6.50863 13.74322,-12.04357 17.95042,-18.31562 4.80603,-7.16478 7.1971,-14.08046 7.83344,-22.65665 0.10219,-1.37728 0.13767,-1.48775 0.47769,-1.48745 0.77013,6.8e-4 6.46378,1.02196 8.52684,1.52947 7.1196,1.75143 11.3403,4.56614 12.51719,8.34748 0.56365,1.81102 0.45572,2.8227 -1.29873,12.17406 -2.73045,14.55353 -5.67469,29.03855 -6.38717,31.42348 -0.8899,2.97881 -2.29973,5.40418 -4.26855,7.34329 -2.79619,2.754 -6.48376,4.35138 -11.69782,5.06725 -1.90502,0.26156 -10.3324,0.46084 -13.77252,0.32568 z m 7.34267,-72.62916 -8.72528,-0.0462 -0.82946,-1.74127 c -1.27218,-2.67068 -2.20464,-6.39456 -2.20774,-8.81685 l -0.001,-0.78443 9.77679,-6.43368 c 6.13771,-4.03896 9.77679,-6.53449 9.77679,-6.70451 0,-0.14896 -0.38935,-0.56776 -0.86522,-0.93067 -1.2778,-0.97445 -3.75901,-3.55335 -4.9127,-5.10609 -2.54449,-3.42461 -4.32316,-7.64919 -5.04611,-11.985177 -0.39053,-2.342241 -0.35254,-6.212618 0.0852,-8.677285 1.9636,-11.056699 10.38263,-19.720238 21.51073,-22.13545 1.4538,-0.315529 2.27418,-0.375706 5.21107,-0.382247 3.80596,-0.0085 4.85182,0.136569 8.07649,1.120089 2.45976,0.750226 3.09434,1.158066 5.24019,3.367853 3.80326,3.916585 6.11618,8.24983 7.28866,13.655289 0.31952,1.473105 0.37919,2.281807 0.38575,5.228295 0.007,3.046229 -0.0421,3.70814 -0.38742,5.250648 -0.69511,3.104595 -1.58071,5.297655 -3.26964,8.096795 -2.81821,4.67078 -8.08142,9.19359 -13.67509,11.75136 -0.79497,0.3635 -1.4461,0.71642 -1.44696,0.78425 -8.5e-4,0.0678 2.48514,3.0134 5.52444,6.5457 l 5.52602,6.42236 -0.003,1.02069 c -0.007,2.27657 -0.87633,6.60144 -1.89708,9.43724 l -0.39781,1.10521 -13.00609,0.002 c -7.15335,10e-4 -16.93247,-0.0187 -21.73137,-0.044 z m 11.47446,-49.199029 c 5.9623,-2.093497 13.28133,-8.001822 15.56552,-12.565354 0.47679,-0.952576 0.55357,-1.282939 0.55597,-2.392221 0.003,-1.522572 -0.34061,-2.170244 -1.60011,-3.013438 -1.84038,-1.232072 -5.81553,-1.760567 -8.61892,-1.145882 -1.4602,0.32017 -3.67051,1.277277 -4.89454,2.11943 -4.19862,2.888729 -7.41278,8.672476 -7.41278,13.339003 0,2.216096 0.78668,3.755031 2.14133,4.18897 0.81695,0.261698 2.66069,0.03228 4.26353,-0.530508 z"
           id="path7929" />
      </g>
      <path
         style="fill:#ffff00;stroke:#000000;stroke-width:0.298263;stroke-miterlimit:4;stroke-dasharray:none;stroke-opacity:1"
         d="M 137.57633,46.82951 C 124.69042,46.179188 111.68634,46.060158 98.993525,43.466511 95.518211,42.226864 93.399646,42.409212 89.362745,41.147488 67.685731,34.956243 70.441661,22.069778 89.235893,16.380787 c 12.120437,-3.27575 23.774877,-4.622625 35.433787,-5.421455 15.11704,-1.0965627 30.32099,-0.591484 45.40406,0.743443 6.36037,0.99803 12.82747,1.56917 19.10835,3.145252 4.90257,1.169196 9.69258,2.603421 14.36586,4.503875 3.74034,1.918004 8.10524,3.917525 8.81471,8.362994 -0.38097,5.926051 -9.78346,9.987953 -14.26166,12.135191 -17.12301,5.619358 -35.31595,6.565184 -53.21503,6.934873 -2.43218,0.03907 -4.88383,0.25839 -7.30933,0.04465 z m 18.66475,-11.036339 c 10.91207,-0.445508 21.94563,-0.753888 32.65502,-3.058663 3.45389,-0.852044 12.38349,-3.673356 8.48641,-8.02399 -4.71075,-4.956821 -11.98859,-5.738532 -18.26245,-7.546992 -7.24102,-1.349055 -14.59085,-2.110914 -21.89643,-2.888878 -11.15069,-0.251853 -22.34912,-0.564139 -33.47629,0.255681 -8.50387,1.151279 -17.1176,1.807 -25.396403,4.216774 -3.926246,1.032807 -8.846455,2.863582 -11.745755,6.30323 -2.983971,4.861852 6.081795,6.529157 9.447502,7.939744 14.146616,2.587898 28.692976,2.766412 43.071116,3.025983 5.70662,0.03188 11.41274,-0.08259 17.11728,-0.222834 z"
         id="path12133" />
      <path
         style="fill:#000000;stroke-width:0.352191"
         id="path6912"
         d="" />
      <path
         style="fill:#000000;stroke-width:0.352191"
         id="path6892"
         d="" />
      <path
         style="fill:#000000;stroke-width:0.352191"
         id="path6872"
         d="" />
    </g>
  </g>
</svg>
